# xmcd CD database file
#
# Track frame offsets:
#	150
#	24486
#	48630
#	70273
#	107515
#	134136
#	153825
#	188040
#	251202
#	299333
#
# Disc length: 4447 seconds
#
# Revision: 0
# Processed by: cddbd v1.5PL3 Copyright (c) Steve Scherf et al.
# Submitted via: CDex 1.51
#
DISCID=93115d0a
DTITLE=Eric Clapton - Royal Blues Night
DYEAR=1990
DGENRE=Blues
TTITLE0=Key To The Highway
TTITLE1=Worried Life Blues
TTITLE2=All Your Love
TTITLE3=Have You Ever Loved A Woman
TTITLE4=Standing Around Crying
TTITLE5=Piano Man Steps Forward
TTITLE6=Going Down Slow
TTITLE7=Everything's Gonna Be Alright
TTITLE8=Sweet Home Chicago - Hoochie Coochie Man
TTITLE9=Ooh Wee Baby
EXTD=YEAR: 1990
EXTT0=
EXTT1=
EXTT2=
EXTT3=
EXTT4=
EXTT5=
EXTT6=
EXTT7=
EXTT8=
EXTT9=
PLAYORDER=
